<?xml version="1.0" encoding="UTF-8"?>
<svg xmlns="http://www.w3.org/2000/svg" xmlns:xlink="http://www.w3.org/1999/xlink" width="120px" height="120px" viewBox="0 0 120 120" version="1.1">
<g id="surface1">
<path style=" stroke:none;fill-rule:nonzero;fill:rgb(11.372549%,40.784314%,86.27451%);fill-opacity:1;" d="M 86.128906 93.132812 L 17.929688 74.847656 C 17.0625 74.617188 16.238281 74.230469 15.503906 73.707031 C 16.847656 72.296875 17.59375 70.425781 17.589844 68.476562 C 17.589844 65.691406 16.070312 63.128906 13.625 61.796875 L 23.488281 25.007812 C 24.570312 20.988281 28.703125 18.605469 32.722656 19.679688 L 100.921875 37.964844 C 104.9375 39.046875 107.320312 43.175781 106.25 47.195312 L 95.359375 87.804688 C 94.277344 91.820312 90.148438 94.203125 86.128906 93.132812 "/>
<path style=" stroke:none;fill-rule:nonzero;fill:rgb(100%,100%,100%);fill-opacity:1;" d="M 88.132812 97.03125 L 17.539062 97.03125 C 13.375 97.027344 10.003906 93.65625 10 89.496094 L 10 75.066406 C 13.636719 75.0625 16.585938 72.113281 16.589844 68.476562 C 16.585938 64.839844 13.636719 61.890625 10 61.886719 L 10 47.457031 C 10.003906 43.296875 13.375 39.925781 17.539062 39.921875 L 88.132812 39.921875 C 92.292969 39.925781 95.667969 43.296875 95.671875 47.457031 L 95.671875 61.886719 C 92.066406 61.9375 89.171875 64.871094 89.171875 68.476562 C 89.171875 72.078125 92.066406 75.015625 95.671875 75.066406 L 95.671875 89.496094 C 95.667969 93.65625 92.292969 97.027344 88.132812 97.03125 "/>
<path style=" stroke:none;fill-rule:nonzero;fill:rgb(9.411765%,13.333333%,36.078431%);fill-opacity:1;" d="M 43.75 73.5 L 43 73.5 C 42.171875 73.5 41.5 74.171875 41.5 75 L 41.5 78.25 C 41.5 79.078125 42.171875 79.75 43 79.75 L 43.75 79.75 C 44.578125 79.75 45.25 79.078125 45.25 78.25 L 45.25 75 C 45.25 74.171875 44.578125 73.5 43.75 73.5 "/>
<path style=" stroke:none;fill-rule:nonzero;fill:rgb(9.411765%,13.333333%,36.078431%);fill-opacity:1;" d="M 62.125 72.25 C 61.089844 72.25 60.25 73.089844 60.25 74.125 L 60.25 78.25 C 60.25 79.078125 60.921875 79.75 61.75 79.75 L 62.5 79.75 C 63.328125 79.75 64 79.078125 64 78.25 L 64 74.125 C 64 73.089844 63.160156 72.25 62.125 72.25 "/>
<path style=" stroke:none;fill-rule:nonzero;fill:rgb(9.411765%,13.333333%,36.078431%);fill-opacity:1;" d="M 42.75 63.5 C 42.75 64.535156 41.910156 65.375 40.875 65.375 C 39.839844 65.375 39 64.535156 39 63.5 C 39 62.464844 39.839844 61.625 40.875 61.625 C 41.910156 61.625 42.75 62.464844 42.75 63.5 "/>
<path style=" stroke:none;fill-rule:nonzero;fill:rgb(90.980392%,21.176471%,40.392157%);fill-opacity:1;" d="M 66.5 63.855469 C 66.5 64.890625 65.660156 65.730469 64.625 65.730469 C 63.589844 65.730469 62.75 64.890625 62.75 63.855469 C 62.75 62.820312 63.589844 61.980469 64.625 61.980469 C 65.660156 61.980469 66.5 62.820312 66.5 63.855469 "/>
<path style=" stroke:none;fill-rule:nonzero;fill:rgb(33.72549%,60.392157%,100%);fill-opacity:1;" d="M 64.125 67.097656 C 63.085938 66.050781 62.289062 64.789062 61.796875 63.398438 L 60.734375 60.398438 C 60.179688 58.535156 58.472656 57.253906 56.53125 57.25 L 48.972656 57.25 C 47.03125 57.257812 45.324219 58.535156 44.769531 60.398438 L 43.707031 63.398438 C 43.214844 64.789062 42.417969 66.050781 41.375 67.097656 C 40.648438 67.835938 40.242188 68.835938 40.25 69.875 L 40.25 75.332031 C 40.234375 76.027344 40.785156 76.609375 41.484375 76.625 L 64.015625 76.625 C 64.714844 76.605469 65.265625 76.027344 65.25 75.328125 L 65.25 69.875 C 65.257812 68.835938 64.851562 67.839844 64.125 67.097656 M 48.972656 60.988281 L 56.53125 60.988281 C 56.785156 60.976562 57.023438 61.117188 57.128906 61.347656 L 58.820312 65.988281 L 46.5 65.988281 L 48.375 61.347656 C 48.484375 61.117188 48.71875 60.976562 48.972656 60.988281 "/>
<path style=" stroke:none;fill-rule:nonzero;fill:rgb(100%,100%,100%);fill-opacity:1;" d="M 44.625 69.125 C 45.660156 69.125 46.5 69.964844 46.5 71 C 46.5 72.035156 45.660156 72.875 44.625 72.875 C 43.589844 72.875 42.75 72.035156 42.75 71 C 42.75 69.964844 43.589844 69.125 44.625 69.125 "/>
<path style=" stroke:none;fill-rule:nonzero;fill:rgb(100%,100%,100%);fill-opacity:1;" d="M 60.875 69.125 C 61.910156 69.125 62.75 69.964844 62.75 71 C 62.75 72.035156 61.910156 72.875 60.875 72.875 C 59.839844 72.875 59 72.035156 59 71 C 59 69.964844 59.839844 69.125 60.875 69.125 "/>
<path style=" stroke:none;fill-rule:nonzero;fill:rgb(80.392157%,87.843137%,100%);fill-opacity:1;" d="M 95.171875 70.925781 C 103.363281 70.925781 110 77.5625 110 85.75 C 110 93.9375 103.363281 100.574219 95.175781 100.578125 C 86.988281 100.578125 80.347656 93.941406 80.347656 85.753906 C 80.34375 77.566406 86.984375 70.925781 95.171875 70.925781 "/>
<path style=" stroke:none;fill-rule:nonzero;fill:rgb(90.980392%,21.176471%,40.392157%);fill-opacity:1;" d="M 97.28125 90.316406 L 95.171875 88.207031 L 93.066406 90.316406 C 92.40625 90.976562 91.339844 90.976562 90.679688 90.316406 C 90.019531 89.65625 90.019531 88.589844 90.679688 87.929688 L 92.789062 85.824219 L 90.539062 83.574219 C 90.222656 83.257812 90.042969 82.828125 90.042969 82.378906 C 90.042969 81.933594 90.222656 81.503906 90.539062 81.1875 C 90.855469 80.871094 91.28125 80.691406 91.730469 80.691406 C 92.179688 80.691406 92.609375 80.871094 92.921875 81.1875 L 95.171875 83.4375 L 97.421875 81.1875 C 97.738281 80.871094 98.167969 80.691406 98.617188 80.691406 C 99.066406 80.691406 99.492188 80.871094 99.808594 81.1875 C 100.125 81.503906 100.304688 81.933594 100.304688 82.378906 C 100.304688 82.828125 100.125 83.257812 99.808594 83.574219 L 97.558594 85.824219 L 99.667969 87.929688 C 100.328125 88.589844 100.324219 89.65625 99.667969 90.316406 C 99.007812 90.976562 97.9375 90.976562 97.28125 90.316406 Z M 97.28125 90.316406 "/>
</g>
</svg>
