<svg xmlns="http://www.w3.org/2000/svg" width="96" height="96" viewBox="0 0 96 96">
  <g id="그룹_15559" data-name="그룹 15559" transform="translate(-140 -112)">
    <rect id="사각형_11214" data-name="사각형 11214" width="96" height="96" transform="translate(140 112)" fill="#d5e0ff" opacity="0"/>
    <rect id="사각형_11215" data-name="사각형 11215" width="80" height="80" transform="translate(148 120)" fill="#ffd2d2" opacity="0"/>
    <path id="패스_17581" data-name="패스 17581" d="M60.887,58.969,6.33,44.341a6,6,0,0,1-1.941-.911,6.06,6.06,0,0,0,1.668-4.185A6.088,6.088,0,0,0,2.886,33.9L10.777,4.469A6.037,6.037,0,0,1,18.163.206L72.721,14.834a6.037,6.037,0,0,1,4.263,7.386l-8.71,32.486a6.038,6.038,0,0,1-7.386,4.263" transform="translate(148.015 127.537)" fill="#1d68dc"/>
    <path id="패스_17582" data-name="패스 17582" d="M62.507,62.008H6.03A6.037,6.037,0,0,1,0,55.978V44.434a5.277,5.277,0,0,0,5.272-5.271A5.277,5.277,0,0,0,0,33.891V22.349a6.037,6.037,0,0,1,6.03-6.03H62.507a6.036,6.036,0,0,1,6.03,6.03V33.891a5.272,5.272,0,0,0,0,10.543V55.978a6.036,6.036,0,0,1-6.03,6.03" transform="translate(148 127.618)" fill="#fff"/>
    <path id="패스_17583" data-name="패스 17583" d="M68.254,41.236A11.861,11.861,0,1,1,56.393,53.1,11.861,11.861,0,0,1,68.254,41.236" transform="translate(147.885 127.504)" fill="#cde0ff"/>
    <g id="ic_x24_doc_stay" transform="translate(-334.8 -313.2)">
      <g id="사각형_11232" data-name="사각형 11232" transform="translate(505 468)" fill="#fff" stroke="#707070" stroke-width="1" opacity="0">
        <rect width="24" height="24" stroke="none"/>
        <rect x="0.5" y="0.5" width="23" height="23" fill="none"/>
      </g>
      <g id="그룹_15556" data-name="그룹 15556" transform="translate(507 471)">
        <path id="패스_17539" data-name="패스 17539" d="M6,2.739H6a1.5,1.5,0,1,1-1.5,1.5A1.5,1.5,0,0,1,6,2.739" fill="#e83667"/>
        <path id="패스_17540" data-name="패스 17540" d="M3,14H0V1.5a1.5,1.5,0,0,1,3,0Z" fill="#569aff"/>
        <path id="패스_17541" data-name="패스 17541" d="M2.3,12H.7a.7.7,0,0,0-.7.7v4.1A1.2,1.2,0,0,0,1.2,18h.6A1.2,1.2,0,0,0,3,16.8V12.7a.7.7,0,0,0-.7-.7" fill="#18225c"/>
        <path id="패스_17542" data-name="패스 17542" d="M18.5,11h0A1.5,1.5,0,0,0,17,12.5v4.3A1.2,1.2,0,0,0,18.2,18h.6A1.2,1.2,0,0,0,20,16.8V12.5A1.5,1.5,0,0,0,18.5,11" fill="#18225c"/>
        <path id="패스_17543" data-name="패스 17543" d="M20,14.75H0v-4a3,3,0,0,1,3-3H17a3,3,0,0,1,3,3Z" fill="#569aff"/>
        <path id="패스_17544" data-name="패스 17544" d="M17,5.75H10a1,1,0,0,1,0-2h7a1,1,0,0,1,0,2" fill="#18225c"/>
      </g>
    </g>
    <g id="실패" transform="translate(212.035 176.554)">
      <path id="Union" d="M12.349,6.372,10.663,4.686,8.977,6.372a1.35,1.35,0,0,1-1.91-1.909L8.754,2.777l-1.8-1.8a1.349,1.349,0,0,1,0-1.909,1.349,1.349,0,0,1,1.909,0l1.8,1.8,1.8-1.8a1.349,1.349,0,0,1,1.909,0,1.349,1.349,0,0,1,0,1.909l-1.8,1.8,1.686,1.686a1.35,1.35,0,0,1-1.91,1.909Z" transform="translate(-6.559 1.327)" fill="#e83667"/>
    </g>
  </g>
</svg>
